<svg viewBox="0 0 700 700" fill="none" xmlns="http://www.w3.org/2000/svg">
<path d="M408.602 226.458C416.585 225.749 432.633 226.199 441.109 226.203L502.536 226.264L511.721 270.435C489.584 270.727 467.246 270.05 445.222 270.43C423.021 270.812 397.602 266.65 380.618 284.038C367.723 297.071 368.086 316.828 380.126 330.203C396.255 348.115 416.803 345.815 438.706 345.628C449.198 345.538 459.617 345.597 470.044 347.47C509.261 354.515 542.696 387.258 542.954 428.725C543.269 449.967 534.874 470.402 519.721 485.289C496.189 508.636 471.278 510.902 440.311 510.845C390.118 511.257 366.933 508.853 334.869 466.507C375.449 466.088 415.932 466.927 456.665 466.298C490.568 465.773 513.019 427.5 485.842 402.315C464.568 382.593 430.456 392.903 404.094 389.041C365.61 383.412 330.24 353.352 326.393 313.257C324.466 292.947 330.828 272.721 344.046 257.175C360.747 237.129 383.328 228.872 408.602 226.458Z" fill="black"/>
<path d="M138.549 203.895C143.958 207.542 157.137 220.77 162.5 225.923L208.173 269.811L399.595 455.635C377.87 456.2 354.693 455.805 332.862 455.788L267.833 392.346C239.7 364.608 211.37 337.065 182.846 309.724C181.664 373.474 182.894 439.015 182.499 503.03C168.095 503.457 152.733 503.28 138.325 503.062L138.311 309.433C138.303 275.469 137.478 237.609 138.549 203.895Z" fill="black"/>
<path d="M534.4 190.718C546.609 187.6 559.052 194.927 562.246 207.12C565.439 219.314 558.189 231.8 546.012 235.07C533.738 238.369 521.117 231.042 517.892 218.74C514.666 206.438 522.077 193.864 534.4 190.718Z" fill="#0B3D2F"/>
</svg>
